ExpData
version=1
nRows=18
nColumns=40
inDegrees=yes
Unit are S.I. units (second, meters, Newtons, ...
endheader
time	pelvis_tilt	pelvis_list	pelvis_rotation	pelvis_tx	pelvis_ty	pelvis_tz	hip_flexion_r	hip_adduction_r	hip_rotation_r	knee_angle_r	knee_angle_r_beta	ankle_angle_r	subtalar_angle_r	mtp_angle_r	hip_flexion_l	hip_adduction_l	hip_rotation_l	knee_angle_l	knee_angle_l_beta	ankle_angle_l	subtalar_angle_l	mtp_angle_l	lumbar_extension	lumbar_bending	lumbar_rotation	arm_flex_r	arm_add_r	arm_rot_r	elbow_flex_r	pro_sup_r	wrist_flex_r	wrist_dev_r	arm_flex_l	arm_add_l	arm_rot_l	elbow_flex_l	pro_sup_l	wrist_flex_l	wrist_dev_l	
31.500000	16.943110	-1.530503	2.384399	-0.861156	0.580404	0.264633	45.000000	-10.000000	0.000000	60.000000	1.047200	-5.000000	0.000000	0.000000	45.000000	-10.000000	0.000000	60.000000	1.047200	-5.000000	0.000000	0.000000	-28.539177	2.843404	1.484340	1.795304	-41.549322	-14.933120	105.757355	86.851091	0.000000	0.000000	12.161998	-48.009519	0.993216	100.928017	89.245903	0.000000	0.000000	
31.505000	16.921735	-1.531702	2.383244	-0.861179	0.580443	0.264638	45.000000	-10.000000	0.000000	60.000000	1.047200	-5.000000	0.000000	0.000000	45.000000	-10.000000	0.000000	60.000000	1.047200	-5.000000	0.000000	0.000000	-28.492671	2.839347	1.467694	2.902393	-42.068076	-13.918288	105.234254	86.763314	0.000000	0.000000	13.574588	-48.275552	2.108269	100.396626	89.239954	0.000000	0.000000	
31.510000	16.898374	-1.533071	2.381804	-0.861196	0.580483	0.264645	45.000000	-10.000000	0.000000	60.000000	1.047200	-5.000000	0.000000	0.000000	45.000000	-10.000000	0.000000	60.000000	1.047200	-5.000000	0.000000	0.000000	-28.441888	2.835566	1.447397	4.108668	-42.589601	-12.805271	104.655735	86.673160	0.000000	0.000000	15.074951	-48.532629	3.314506	99.810275	89.233637	0.000000	0.000000	
31.515000	16.873004	-1.534570	2.380111	-0.861208	0.580524	0.264654	45.000000	-10.000000	0.000000	60.000000	1.047200	-5.000000	0.000000	0.000000	45.000000	-10.000000	0.000000	60.000000	1.047200	-5.000000	0.000000	0.000000	-28.386886	2.831975	1.423563	5.413401	-43.109323	-11.593274	104.019682	86.579930	0.000000	0.000000	16.659962	-48.776985	4.611613	99.166014	89.226879	0.000000	0.000000	
31.520000	16.845611	-1.536159	2.378202	-0.861214	0.580566	0.264663	45.000000	-10.000000	0.000000	60.000000	1.047200	-5.000000	0.000000	0.000000	45.000000	-10.000000	0.000000	60.000000	1.047200	-5.000000	0.000000	0.000000	-28.327776	2.828482	1.396396	6.814872	-43.622506	-10.282307	103.324348	86.482895	0.000000	0.000000	18.325770	-49.004760	5.998458	98.461268	89.219615	0.000000	0.000000	
31.525000	16.816186	-1.537805	2.376105	-0.861213	0.580610	0.264674	45.000000	-10.000000	0.000000	60.000000	1.047200	-5.000000	0.000000	0.000000	45.000000	-10.000000	0.000000	60.000000	1.047200	-5.000000	0.000000	0.000000	-28.264692	2.824994	1.366156	8.310453	-44.124334	-8.873100	102.568412	86.381363	0.000000	0.000000	20.067781	-49.212070	7.473031	97.693919	89.211796	0.000000	0.000000	
31.530000	16.784720	-1.539482	2.373847	-0.861204	0.580655	0.264687	45.000000	-10.000000	0.000000	60.000000	1.047200	-5.000000	0.000000	0.000000	45.000000	-10.000000	0.000000	60.000000	1.047200	-5.000000	0.000000	0.000000	-28.197786	2.821418	1.333118	9.896696	-44.609992	-7.367050	101.751019	86.274743	0.000000	0.000000	21.880663	-49.395081	9.032411	96.862362	89.203389	0.000000	0.000000	
31.535000	16.751200	-1.541172	2.371454	-0.861189	0.580702	0.264700	45.000000	-10.000000	0.000000	60.000000	1.047200	-5.000000	0.000000	0.000000	45.000000	-10.000000	0.000000	60.000000	1.047200	-5.000000	0.000000	0.000000	-28.127209	2.817664	1.297550	11.569407	-45.074727	-5.766186	100.871830	86.162597	0.000000	0.000000	23.758377	-49.550088	10.672778	95.965528	89.194375	0.000000	0.000000	
31.540000	16.715617	-1.542859	2.368958	-0.861165	0.580752	0.264715	45.000000	-10.000000	0.000000	60.000000	1.047200	-5.000000	0.000000	0.000000	45.000000	-10.000000	0.000000	60.000000	1.047200	-5.000000	0.000000	0.000000	-28.053107	2.813654	1.259690	13.323723	-45.513918	-4.073151	99.931022	86.044665	0.000000	0.000000	25.694219	-49.673571	12.389426	95.002883	89.184756	0.000000	0.000000	
31.545000	16.677975	-1.544534	2.366400	-0.861133	0.580803	0.264730	45.000000	-10.000000	0.000000	60.000000	1.047200	-5.000000	0.000000	0.000000	45.000000	-10.000000	0.000000	60.000000	1.047200	-5.000000	0.000000	0.000000	-27.975616	2.809328	1.219739	15.154173	-45.923142	-2.291213	98.929287	85.920863	0.000000	0.000000	27.680906	-49.762241	14.176849	93.974408	89.174545	0.000000	0.000000	
31.550000	16.638307	-1.546189	2.363826	-0.861093	0.580856	0.264746	45.000000	-10.000000	0.000000	60.000000	1.047200	-5.000000	0.000000	0.000000	45.000000	-10.000000	0.000000	60.000000	1.047200	-5.000000	0.000000	0.000000	-27.894921	2.804640	1.177888	17.054651	-46.298265	-0.424330	97.867839	85.791179	0.000000	0.000000	29.710750	-49.813104	16.028977	92.880571	89.163762	0.000000	0.000000	
31.555000	16.596682	-1.547813	2.361284	-0.861044	0.580911	0.264762	45.000000	-10.000000	0.000000	60.000000	1.047200	-5.000000	0.000000	0.000000	45.000000	-10.000000	0.000000	60.000000	1.047200	-5.000000	0.000000	0.000000	-27.811317	2.799557	1.134360	19.018378	-46.635527	1.522779	96.748430	85.655526	0.000000	0.000000	31.775865	-49.823535	17.939482	91.722277	89.152422	0.000000	0.000000	
31.560000	16.553196	-1.549397	2.358812	-0.860987	0.580968	0.264778	45.000000	-10.000000	0.000000	60.000000	1.047200	-5.000000	0.000000	0.000000	45.000000	-10.000000	0.000000	60.000000	1.047200	-5.000000	0.000000	0.000000	-27.725200	2.794068	1.089420	21.037932	-46.931628	3.544668	95.573319	85.513660	0.000000	0.000000	33.868283	-49.791346	19.901975	90.500860	89.140530	0.000000	0.000000	
31.565000	16.507958	-1.550942	2.356433	-0.860920	0.581028	0.264794	45.000000	-10.000000	0.000000	60.000000	1.047200	-5.000000	0.000000	0.000000	45.000000	-10.000000	0.000000	60.000000	1.047200	-5.000000	0.000000	0.000000	-27.637037	2.788182	1.043362	23.105347	-47.183774	5.635274	94.345196	85.365161	0.000000	0.000000	35.980003	-49.714839	21.910101	89.218104	89.128077	0.000000	0.000000	
31.570000	16.461082	-1.552454	2.354158	-0.860844	0.581090	0.264810	45.000000	-10.000000	0.000000	60.000000	1.047200	-5.000000	0.000000	0.000000	45.000000	-10.000000	0.000000	60.000000	1.047200	-5.000000	0.000000	0.000000	-27.547346	2.781942	0.996477	25.212229	-47.389711	7.788033	93.067119	85.209389	0.000000	0.000000	38.103050	-49.592843	23.957641	87.876276	89.115037	0.000000	0.000000	
31.575000	16.412678	-1.553945	2.351994	-0.860759	0.581154	0.264825	45.000000	-10.000000	0.000000	60.000000	1.047200	-5.000000	0.000000	0.000000	45.000000	-10.000000	0.000000	60.000000	1.047200	-5.000000	0.000000	0.000000	-27.456689	2.775423	0.949048	27.349853	-47.547766	9.995969	91.742467	85.045434	0.000000	0.000000	40.229554	-49.424737	26.038622	86.478149	89.101362	0.000000	0.000000	
31.580000	16.362837	-1.555426	2.349948	-0.860665	0.581220	0.264839	45.000000	-10.000000	0.000000	60.000000	1.047200	-5.000000	0.000000	0.000000	45.000000	-10.000000	0.000000	60.000000	1.047200	-5.000000	0.000000	0.000000	-27.365643	2.768730	0.901357	29.509242	-47.656885	12.251792	90.374916	84.872072	0.000000	0.000000	42.351839	-49.210449	28.147425	85.026997	89.086985	0.000000	0.000000	
31.585000	16.311638	-1.556918	2.348021	-0.860562	0.581289	0.264851	45.000000	-10.000000	0.000000	60.000000	1.047200	-5.000000	0.000000	0.000000	45.000000	-10.000000	0.000000	60.000000	1.047200	-5.000000	0.000000	0.000000	-27.274789	2.761979	0.853696	31.681249	-47.716652	14.547993	88.968414	84.687714	0.000000	0.000000	44.462490	-48.950449	30.278838	83.526587	89.071815	0.000000	0.000000	
